<?xml version="1.0"?>
<svg xmlns="http://www.w3.org/2000/svg" width="1280" height="640" viewBox="0 0 338.66667 169.33333" version="1.1">
  <rect fill="#000000h" width="338.66667" height="169.33333" x="0" y="0"/>
  <path d="m 40.46818,128.41952 v 8.7362 l -6.16148,-8.7362 h -1.22039 v 11.01327 h 1.27992 v -8.7362 l 6.16148,8.7362 h 1.22039 v -11.01327 z m 6.13237,1.54781 c 0.32742,0.0893 0.98226,0.0893 1.30968,0 v -1.20551 c -0.32742,-0.0893 -0.98226,-0.0893 -1.30968,0 z m 0,9.46546 h 1.30968 v -7.88788 l -1.30968,0.14882 z m 12.2492,-7.73906 h -1.57758 l -1.87523,2.99145 -1.72641,-2.99145 h -1.60734 l 2.63426,3.86953 -2.7682,3.86953 h 1.51804 l 1.89012,-3.06586 1.905,3.06586 h 1.59246 l -2.7682,-3.97371 z m 9.184,7.73906 h 1.30969 v -11.31093 l -1.30969,0.14883 z m 6.16214,-9.46546 c 0.32742,0.0893 0.98227,0.0893 1.30969,0 v -1.20551 c -0.32742,-0.0893 -0.98227,-0.0893 -1.30969,0 z m 0,9.46546 h 1.30969 v -7.88788 l -1.30969,0.14882 z m 9.07917,-7.94742 c -0.6102,0 -1.11621,0.0298 -1.60734,0.10418 v -3.46769 l -1.30969,0.14883 v 10.98351 c 0.8632,0.253 1.59246,0.38695 2.63425,0.38695 2.63426,0 3.85465,-1.57758 3.85465,-4.3309 0,-2.84261 -1.44363,-3.82488 -3.57187,-3.82488 z m -0.13395,7.11398 c -0.44648,0 -0.81855,-0.0298 -1.47339,-0.14883 v -5.83405 c 0.41671,-0.0744 0.7739,-0.0893 1.26503,-0.0893 1.72641,0 2.54496,0.8632 2.54496,3.03609 0,2.03894 -0.78879,3.03609 -2.3366,3.03609 z m 7.97784,0.83344 h 1.30969 v -5.77453 c 0.3423,-0.66972 0.81855,-0.93761 1.53293,-0.93761 0.37207,0 0.61019,0.0298 0.89297,0.10418 l 0.10418,-1.10133 c -0.19348,-0.14883 -0.44649,-0.23813 -0.86321,-0.23813 -0.63996,0 -1.2948,0.29766 -1.66687,1.14598 v -1.01203 l -1.30969,0.14883 z m 13.291,0 c -0.16371,-0.80367 -0.19348,-1.22039 -0.19348,-2.00918 v -2.42589 c 0,-0.5209 0,-0.89297 -0.0149,-1.23528 -0.0744,-1.44363 -1.11621,-2.27707 -2.82773,-2.27707 -0.86321,0 -1.71153,0.20836 -2.55984,0.66973 l 0.37207,0.8632 c 0.65484,-0.3423 1.35433,-0.49113 1.90499,-0.49113 1.32457,0 1.81571,0.65484 1.81571,1.66687 v 0.81856 c -0.41672,-0.10418 -0.93762,-0.17859 -1.42875,-0.17859 -1.87524,0 -3.22957,0.80367 -3.22957,2.41101 0,1.83058 1.04179,2.39613 2.32172,2.39613 0.7739,0 1.45851,-0.20836 2.36636,-0.83344 l 0.19348,0.78879 z m -4.82203,-2.30683 c 0,-0.89297 0.71438,-1.27993 1.8157,-1.27993 0.63996,0 1.08645,0.0298 1.50317,0.10419 v 2.08359 c -0.68461,0.40183 -1.25016,0.56554 -1.83059,0.56554 -0.9525,0 -1.48828,-0.46136 -1.48828,-1.47339 z m 9.40658,2.30683 h 1.30969 v -5.77453 c 0.3423,-0.66972 0.81855,-0.93761 1.53292,-0.93761 0.37207,0 0.6102,0.0298 0.89297,0.10418 l 0.10418,-1.10133 c -0.19347,-0.14883 -0.44648,-0.23813 -0.8632,-0.23813 -0.63996,0 -1.2948,0.29766 -1.66687,1.14598 v -1.01203 l -1.30969,0.14883 z m 12.87427,-7.73906 -2.32172,6.20613 -2.15801,-6.20613 H 115.871 l 2.99144,7.36699 c -0.6102,1.27992 -1.51805,2.08359 -2.78308,2.66402 l 0.6846,0.98227 c 1.62223,-0.6102 2.50032,-1.68176 3.66117,-4.34578 l 2.91703,-6.6675 z m 13.91674,-2.5896 c 0.26789,0 0.5209,0.0446 0.75903,0.14883 l 0.3423,-0.74414 c -0.28277,-0.2679 -0.81855,-0.44649 -1.33945,-0.44649 -1.32457,0 -2.45566,0.9525 -2.53008,2.47055 -0.0149,0.44648 -0.0149,0.75902 -0.0149,1.02691 v 0.13394 h -1.13109 v 0.98227 h 1.13109 v 6.75679 h 1.30969 V 132.676 h 1.75617 l 0.13394,-0.98227 h -1.89011 v -0.80367 c 0,-1.36922 0.55066,-1.78593 1.47339,-1.78593 z m 7.41229,2.38124 c -2.18777,0 -3.60164,1.35434 -3.60164,4.07789 0,2.72355 1.41387,4.07789 3.60164,4.07789 2.18777,0 3.60164,-1.35434 3.60164,-4.07789 0,-2.72355 -1.41387,-4.07789 -3.60164,-4.07789 z m 0,7.11398 c -1.32457,0 -2.23242,-0.90785 -2.23242,-3.03609 0,-2.12824 0.90785,-3.03609 2.23242,-3.03609 1.32457,0 2.23242,0.90785 2.23242,3.03609 0,2.12824 -0.90785,3.03609 -2.23242,3.03609 z m 7.87367,0.83344 h 1.30969 v -5.77453 c 0.3423,-0.66972 0.81855,-0.93761 1.53293,-0.93761 0.37207,0 0.61019,0.0298 0.89297,0.10418 l 0.10417,-1.10133 c -0.19347,-0.14883 -0.44648,-0.23813 -0.8632,-0.23813 -0.63996,0 -1.2948,0.29766 -1.66687,1.14598 v -1.01203 l -1.30969,0.14883 z m 23.78403,-5.81918 c -0.14883,-1.62222 -1.08645,-2.12824 -2.53008,-2.12824 -0.96738,0 -1.86035,0.35719 -2.55984,0.99715 -0.40183,-0.74414 -1.19062,-0.99715 -2.21754,-0.99715 -0.81855,0 -1.57757,0.25301 -2.21753,0.72926 v -0.66972 l -1.30969,0.14882 v 7.73906 h 1.30969 v -6.26566 c 0.49113,-0.44648 1.05668,-0.63996 1.71152,-0.63996 1.22039,0 1.75617,0.56555 1.75617,2.14312 v 4.7625 h 1.30969 v -4.61367 c 0,-0.50601 0,-0.8632 -0.0298,-1.20551 l -0.0446,-0.3423 c 0.50602,-0.50601 1.10133,-0.74414 1.78594,-0.74414 1.22039,0 1.75617,0.56555 1.75617,2.14312 v 4.7625 h 1.30968 v -4.61367 c 0,-0.50601 0,-0.8632 -0.0298,-1.2055 z m 10.24003,5.81918 c -0.16371,-0.80367 -0.19347,-1.22039 -0.19347,-2.00918 v -2.42589 c 0,-0.5209 0,-0.89297 -0.0149,-1.23528 -0.0744,-1.44363 -1.11621,-2.27707 -2.82773,-2.27707 -0.8632,0 -1.71152,0.20836 -2.55984,0.66973 l 0.37207,0.8632 c 0.65484,-0.3423 1.35433,-0.49113 1.905,-0.49113 1.32457,0 1.8157,0.65484 1.8157,1.66687 v 0.81856 c -0.41672,-0.10418 -0.93762,-0.17859 -1.42875,-0.17859 -1.87523,0 -3.22957,0.80367 -3.22957,2.41101 0,1.83058 1.0418,2.39613 2.32172,2.39613 0.77391,0 1.45851,-0.20836 2.36637,-0.83344 l 0.19347,0.78879 z m -4.82202,-2.30683 c 0,-0.89297 0.71437,-1.27993 1.8157,-1.27993 0.63996,0 1.08644,0.0298 1.50316,0.10419 v 2.08359 c -0.68461,0.40183 -1.25016,0.56554 -1.83058,0.56554 -0.9525,0 -1.48828,-0.46136 -1.48828,-1.47339 z m 9.40658,2.30683 h 1.30969 v -11.31093 l -1.30969,0.14883 z m 2.8575,-4.16718 3.49746,-3.57188 -1.36922,-0.20836 -3.52722,3.95883 3.27421,3.98859 h 1.77106 z m 7.48671,-5.29828 c 0.32742,0.0893 0.98226,0.0893 1.30969,0 v -1.20551 c -0.32743,-0.0893 -0.98227,-0.0893 -1.30969,0 z m 0,9.46546 h 1.30969 v -7.88788 l -1.30969,0.14882 z m 12.36825,-5.81918 c -0.13394,-1.62222 -1.08644,-2.12824 -2.53007,-2.12824 -0.87809,0 -1.71153,0.29766 -2.36637,0.83344 v -0.7739 l -1.30969,0.14882 v 7.73906 h 1.30969 v -6.04242 c 0.5209,-0.58043 1.13109,-0.8632 1.86035,-0.8632 1.22039,0 1.75617,0.56555 1.75617,2.14312 v 4.7625 h 1.30969 v -4.61367 c 0,-0.50601 0,-0.8632 -0.0298,-1.20551 z m 10.85023,-1.91988 h -2.45567 c -0.37207,-0.11906 -0.7739,-0.17859 -1.13109,-0.17859 -1.65199,0 -3.03609,0.96738 -3.03609,2.58961 0,1.63711 1.2948,2.55984 2.94679,2.55984 0.19348,0 0.40184,-0.0149 0.58043,-0.0446 -0.14882,0.22324 -0.20836,0.44648 -0.20836,0.65484 0,0.22324 0.0595,0.41672 0.1786,0.58043 -0.26789,-0.0893 -0.55067,-0.11906 -0.92274,-0.11906 -1.51804,0 -2.97656,0.81855 -2.97656,2.60449 0,1.65199 1.30969,2.36636 3.24445,2.36636 2.11336,0 3.45281,-1.02691 3.45281,-2.6789 0,-0.87808 -0.40183,-1.56269 -1.2948,-2.2473 -0.37207,-0.28278 -0.53578,-0.58043 -0.53578,-0.89297 0,-0.23813 0.0893,-0.49113 0.29766,-0.74414 0.69949,-0.46137 1.13109,-1.19063 1.13109,-2.06871 0,-0.56555 -0.13395,-1.01203 -0.37207,-1.39898 h 0.96738 z m -5.34293,2.41102 c 0,-1.14598 0.89297,-1.60734 1.71152,-1.60734 0.81856,0 1.62223,0.46136 1.62223,1.57757 0,1.14598 -0.83344,1.60734 -1.65199,1.60734 -0.81856,0 -1.68176,-0.46136 -1.68176,-1.57757 z m 1.60734,7.56046 c -1.26503,0 -2.00917,-0.49113 -2.00917,-1.4734 0,-1.13109 0.8632,-1.59246 2.26218,-1.59246 0.40184,0 0.89297,0.0447 1.32457,0.19348 0.3423,0.31254 0.49113,0.72926 0.49113,1.25016 0,0.90785 -0.66972,1.62222 -2.06871,1.62222 z m 21.89392,-9.97148 -1.77105,6.19125 -1.94965,-6.07218 h -0.84832 l -2.06871,6.0573 -1.59246,-6.17637 h -1.48828 l 2.41101,7.73906 h 1.16086 l 1.93477,-5.55128 1.83058,5.55128 h 1.14598 l 2.53007,-7.73906 z m 8.23085,6.87586 c -1.41386,0 -2.11336,-0.66973 -2.18777,-2.67891 h 4.91132 c 0,-0.47625 0,-0.84832 -0.0298,-1.33945 -0.11906,-2.02406 -0.99715,-3.06585 -2.79797,-3.06585 -2.08359,0 -3.40816,1.19062 -3.40816,4.22671 0,2.72355 1.02691,3.92906 3.43793,3.92906 0.87808,0 1.7264,-0.14883 2.55984,-0.55066 l -0.31254,-0.92274 c -0.65484,0.26789 -1.27992,0.40184 -2.17289,0.40184 z m -0.17859,-6.04242 c 1.19062,0 1.56269,0.58043 1.63711,2.38125 h -3.63141 c 0.0893,-1.84547 0.78879,-2.38125 1.9943,-2.38125 z m 10.18051,-1.04179 c -0.6102,0 -1.11621,0.0298 -1.60734,0.10417 v -3.46769 l -1.30969,0.14883 v 10.98351 c 0.8632,0.253 1.59246,0.38695 2.63426,0.38695 2.63425,0 3.85464,-1.57758 3.85464,-4.3309 0,-2.84261 -1.44363,-3.82487 -3.57187,-3.82487 z m -0.13395,7.11397 c -0.44648,0 -0.81855,-0.0298 -1.47339,-0.14882 v -5.83406 c 0.41672,-0.0744 0.7739,-0.0893 1.26503,-0.0893 1.72641,0 2.54496,0.8632 2.54496,3.03609 0,2.03894 -0.78878,3.03609 -2.3366,3.03609 z m 9.86795,1.0418 c 1.57757,0 2.85749,-0.77391 2.85749,-2.29195 0,-1.32457 -0.87808,-1.87523 -2.18777,-2.44078 -0.96738,-0.41672 -1.50316,-0.74414 -1.50316,-1.41387 0,-0.63996 0.4316,-0.96738 1.23527,-0.96738 0.80367,0 1.3841,0.19348 1.89012,0.53578 l 0.4316,-0.92273 c -0.59531,-0.4316 -1.29481,-0.65484 -2.2473,-0.65484 -1.66688,0 -2.63426,0.84831 -2.63426,2.12824 0,1.2055 0.8632,1.77105 1.9943,2.2473 1.33945,0.55066 1.68175,0.8632 1.68175,1.60734 0,0.68461 -0.49113,1.13109 -1.42875,1.13109 -0.84832,0 -1.54781,-0.26789 -2.158,-0.69949 l -0.55067,0.8632 c 0.65485,0.59532 1.50317,0.87809 2.61938,0.87809 z m 7.20395,-9.67382 c 0.32742,0.0893 0.98227,0.0893 1.30969,0 v -1.20551 c -0.32742,-0.0893 -0.98227,-0.0893 -1.30969,0 z m 0,9.46546 h 1.30969 v -7.88788 l -1.30969,0.14882 z m 9.97212,-1.0418 c -0.37207,0.13395 -0.63996,0.1786 -0.89297,0.1786 -0.90785,0 -1.16085,-0.37207 -1.16085,-1.65199 v -4.2416 h 2.09847 l 0.13395,-0.98227 h -2.23242 v -1.93476 l -1.30969,0.20836 v 1.7264 h -1.11621 v 0.98227 h 1.11621 v 4.16718 c 0,0.41672 0,0.81856 0.0298,1.22039 0.0744,0.89297 0.62507,1.57758 1.86035,1.57758 0.69949,0 1.23527,-0.16371 1.71152,-0.40184 z m 7.20395,0.1786 c -1.41387,0 -2.11336,-0.66973 -2.18777,-2.67891 h 4.91132 c 0,-0.47625 0,-0.84832 -0.0298,-1.33945 -0.11907,-2.02406 -0.99715,-3.06585 -2.79797,-3.06585 -2.08359,0 -3.40816,1.19062 -3.40816,4.22671 0,2.72355 1.02691,3.92906 3.43792,3.92906 0.87809,0 1.72641,-0.14883 2.55985,-0.55066 l -0.31254,-0.92274 c -0.65485,0.26789 -1.27992,0.40184 -2.17289,0.40184 z m -0.1786,-6.04242 c 1.19063,0 1.5627,0.58043 1.63711,2.38125 h -3.6314 c 0.0893,-1.84547 0.78879,-2.38125 1.99429,-2.38125 z m 9.15359,7.11398 c 1.57757,0 2.85749,-0.77391 2.85749,-2.29195 0,-1.32457 -0.87808,-1.87523 -2.18777,-2.44078 -0.96738,-0.41672 -1.50316,-0.74414 -1.50316,-1.41387 0,-0.63996 0.4316,-0.96738 1.23527,-0.96738 0.80367,0 1.3841,0.19348 1.89012,0.53578 l 0.4316,-0.92273 c -0.59531,-0.4316 -1.2948,-0.65484 -2.2473,-0.65484 -1.66688,0 -2.63426,0.84831 -2.63426,2.12824 0,1.2055 0.8632,1.77105 1.9943,2.2473 1.33945,0.55066 1.68175,0.8632 1.68175,1.60734 0,0.68461 -0.49113,1.13109 -1.42875,1.13109 -0.84832,0 -1.54781,-0.26789 -2.158,-0.69949 l -0.55067,0.8632 c 0.65485,0.59532 1.50317,0.87809 2.61938,0.87809 z" fill="#ffffff" aria-label="Nix library for making websites"/>
  <path fill="#4d6fd7" d="m 234.42849,36.447595 v 10.629872 l 23.07947,16.90533 -23.07947,17.033404 v 10.501797 l 30.31469,-23.821149 v -7.428103 z"/>
  <path d="m 111.1293,103.36016 h 1.43009 v -6.305384 c 0.37377,-0.731295 0.8938,-1.023813 1.67385,-1.023813 0.40628,0 0.66629,0.0325 0.97506,0.113757 l 0.11376,-1.202574 c -0.21126,-0.16251 -0.48753,-0.260016 -0.94256,-0.260016 -0.69879,0 -1.41384,0.32502 -1.82011,1.251327 v -1.105068 l -1.43009,0.16251 z m 9.60449,-0.94255 c -1.54385,0 -2.30765,-0.7313 -2.3889,-2.925184 h 5.36283 c 0,-0.520032 0,-0.926307 -0.0325,-1.46259 -0.13001,-2.210136 -1.08882,-3.347706 -3.05519,-3.347706 -2.27514,0 -3.72148,1.30008 -3.72148,4.615284 0,2.973936 1.12132,4.290266 3.75398,4.290266 0.95881,0 1.88512,-0.16251 2.79517,-0.60129 l -0.34127,-1.00756 c -0.71504,0.29252 -1.39758,0.43878 -2.37264,0.43878 z m -0.19502,-6.59791 c 1.30008,0 1.70636,0.633789 1.78761,2.60016 h -3.96524 c 0.0975,-2.015124 0.8613,-2.60016 2.17763,-2.60016 z m 9.08448,-1.13757 c -0.66629,0 -1.21883,0.0325 -1.75511,0.113757 v -3.786483 l -1.43009,0.16251 v 11.993236 c 0.94256,0.27627 1.73886,0.42253 2.87643,0.42253 2.87643,0 4.20901,-1.72261 4.20901,-4.729043 0,-3.103941 -1.57635,-4.176507 -3.90024,-4.176507 z m -0.14626,7.76798 c -0.48753,0 -0.89381,-0.0325 -1.60885,-0.16251 v -6.370394 c 0.45503,-0.08125 0.84505,-0.09751 1.38134,-0.09751 1.88511,0 2.77892,0.942558 2.77892,3.315204 0,2.22639 -0.86131,3.31521 -2.55141,3.31521 z m 11.73337,-7.459211 v 6.565401 c -0.61753,0.58504 -1.30008,0.84505 -2.09638,0.84505 -1.26757,0 -1.85261,-0.61753 -1.85261,-2.34014 v -5.232821 l -1.43009,0.16251 v 4.745292 c 0,0.552539 0,0.942559 0.0325,1.316329 0.14626,1.77136 1.18633,2.4864 2.76267,2.4864 0.94256,0 1.88512,-0.30876 2.58391,-0.8938 v 0.71504 h 1.43009 v -8.531771 z m 4.69671,-1.966371 c 0.35752,0.09751 1.07257,0.09751 1.43009,0 v -1.316331 c -0.35752,-0.09751 -1.07257,-0.09751 -1.43009,0 z m 0,10.335632 h 1.43009 v -8.613026 l -1.43009,0.16251 z m 4.69669,0 h 1.43009 V 91.009404 l -1.43009,0.16251 z m 9.71825,-12.188246 v 3.607722 c -0.43878,-0.065 -0.91006,-0.09751 -1.44634,-0.09751 -2.87643,0 -4.20901,1.722606 -4.20901,4.729041 0,3.103943 1.57635,4.176513 3.90024,4.176513 1.25133,0 2.06388,-0.13001 3.1852,-0.40628 V 91.009404 Z m -4.16026,7.96299 c 0,-2.226387 0.8613,-3.315204 2.55141,-3.315204 0.48753,0 0.8938,0.0325 1.60885,0.16251 v 6.37039 c -0.45503,0.0813 -0.84505,0.0975 -1.38134,0.0975 -1.88511,0 -2.77892,-0.94256 -2.77892,-3.315206 z m 16.99884,3.087686 c -0.40627,0.14626 -0.69879,0.19502 -0.97506,0.19502 -0.99131,0 -1.26758,-0.40628 -1.26758,-1.80387 v -4.63153 h 2.29139 l 0.14626,-1.072566 h -2.43765 v -2.11263 l -1.43009,0.227514 v 1.885116 h -1.21882 v 1.072566 h 1.21882 v 4.55028 c 0,0.45503 0,0.8938 0.0325,1.33258 0.0813,0.97506 0.68254,1.72261 2.03137,1.72261 0.7638,0 1.34883,-0.17876 1.86887,-0.43878 z m 9.40948,-5.216567 c -0.16251,-1.771359 -1.18632,-2.323893 -2.76267,-2.323893 -0.95881,0 -1.86887,0.32502 -2.58391,0.910056 v -4.582782 l -1.43009,0.16251 v 12.188246 h 1.43009 v -6.597902 c 0.56879,-0.633789 1.23508,-0.942558 2.03138,-0.942558 1.33258,0 1.91761,0.617538 1.91761,2.340144 v 5.200316 h 1.43009 v -5.037806 c 0,-0.552534 0,-0.942558 -0.0325,-1.316331 z m 6.27302,5.411587 c -1.54384,0 -2.30764,-0.7313 -2.38889,-2.925184 h 5.36283 c 0,-0.520032 0,-0.926307 -0.0325,-1.46259 -0.13,-2.210136 -1.08881,-3.347706 -3.05518,-3.347706 -2.27514,0 -3.72148,1.30008 -3.72148,4.615284 0,2.973936 1.12132,4.290266 3.75398,4.290266 0.95881,0 1.88511,-0.16251 2.79517,-0.60129 l -0.34127,-1.00756 c -0.71504,0.29252 -1.39759,0.43878 -2.37265,0.43878 z m -0.19501,-6.59791 c 1.30008,0 1.70636,0.633789 1.78761,2.60016 h -3.96524 c 0.0975,-2.015124 0.8613,-2.60016 2.17763,-2.60016 z m 19.144,-0.910056 -1.93387,6.760416 -2.12888,-6.630408 h -0.9263 l -2.25889,6.614158 -1.73886,-6.744166 h -1.6251 l 2.63266,8.450516 h 1.26758 l 2.11263,-6.061619 1.99887,6.061619 h 1.25133 l 2.76267,-8.450516 z m 6.95558,7.507966 c -1.54384,0 -2.30764,-0.7313 -2.38889,-2.925184 h 5.36283 c 0,-0.520032 0,-0.926307 -0.0325,-1.46259 -0.13001,-2.210136 -1.08882,-3.347706 -3.05519,-3.347706 -2.27514,0 -3.72148,1.30008 -3.72148,4.615284 0,2.973936 1.12132,4.290266 3.75398,4.290266 0.95881,0 1.88512,-0.16251 2.79517,-0.60129 l -0.34127,-1.00756 c -0.71504,0.29252 -1.39759,0.43878 -2.37265,0.43878 z m -0.19501,-6.59791 c 1.30008,0 1.70636,0.633789 1.78761,2.60016 h -3.96524 c 0.0975,-2.015124 0.8613,-2.60016 2.17763,-2.60016 z m 9.08448,-1.13757 c -0.66629,0 -1.21883,0.0325 -1.75511,0.113757 v -3.786483 l -1.43009,0.16251 v 11.993236 c 0.94256,0.27627 1.73886,0.42253 2.87643,0.42253 2.87643,0 4.20901,-1.72261 4.20901,-4.729043 0,-3.103941 -1.57635,-4.176507 -3.90024,-4.176507 z m -0.14626,7.76798 c -0.48753,0 -0.8938,-0.0325 -1.60885,-0.16251 v -6.370394 c 0.45503,-0.08125 0.84505,-0.09751 1.38134,-0.09751 1.88511,0 2.77892,0.942558 2.77892,3.315204 0,2.22639 -0.86131,3.31521 -2.55141,3.31521 z" fill="#77b6e1" aria-label="rebuild the web"/>
  <path fill="#4d6fd7" d="m 219.42698,83.674795 h 6.86595 V 24.377916 l -6.86595,0.780221 z"/>
  <path fill="#77b6e1" d="m 211.38843,53.168112 c -0.7022,-8.504423 -5.69563,-11.157176 -13.26378,-11.157176 -4.60331,0 -8.97255,1.560445 -12.40554,4.369243 v -4.057156 l -6.86595,0.780222 v 40.57155 h 6.86595 V 51.997777 c 2.73079,-3.042865 5.9297,-4.525286 9.75278,-4.525286 6.39782,0 9.20662,2.964842 9.20662,11.235197 v 24.967107 h 6.86596 V 59.487911 c 0,-2.652756 0,-4.525289 -0.15605,-6.319799 z"/>
  <path fill="#4d6fd7" d="m 144.90895,53.168112 c -0.78022,-8.504423 -5.69563,-11.157176 -13.26378,-11.157176 -4.60331,0 -8.97256,1.560445 -12.40553,4.369243 V 24.377916 l -6.86595,0.780222 v 58.516657 h 6.86595 V 51.997777 c 2.73077,-3.042865 5.92969,-4.525286 9.75278,-4.525286 6.39782,0 9.20662,2.964842 9.20662,11.235197 V 83.674795 H 145.065 V 59.487911 c 0,-2.652756 0,-4.525289 -0.15607,-6.319799 z m 28.01223,25.045128 c -1.95055,0.702199 -3.35495,0.936268 -4.68134,0.936268 -4.75935,0 -6.08573,-1.950557 -6.08573,-8.660466 V 48.252713 h 11.00114 l 0.7022,-5.149468 H 162.15411 V 32.960358 l -6.86595,1.092312 v 9.050575 h -5.85166 v 5.149468 h 5.85166 V 70.09893 c 0,2.184623 0,4.291222 0.15604,6.397822 0.39011,4.681332 3.27693,8.270354 9.75277,8.270354 3.66704,0 6.47585,-0.858245 8.97256,-2.1066 z"/>
  <path fill="#4d6fd7" d="M 104.23817,36.447597 73.92349,60.268748 v 7.4281 l 30.31468,23.821148 V 80.888129 L 81.15872,63.854727 104.23817,46.949396 Z"/>
</svg>
